PathFileType	4	(X/Y/Z)	C:/Users/opensim2020/Desktop/walking_exp_matlab/subject01_walking07_straight_03.trc																																																																																																																															
DataRate	CameraRate	NumFrames	NumMarkers	Units	OrigDataRate	OrigDataStartFrame	OrigNumFrames																																																																																																																											
100	100	6	43	mm	100	2201	220																																																																																																																											
Frame#	Time	LFHD			RFHD			LBHD			RBHD			C7			T10			CLAV			STRN			RBAK			LSHO			LUPA			LELB			LFRM			LWRA			LWRB			LFIN			RSHO			RUPA			RELB			RFRM			RWRA			RWRB			RFIN			LASI			RASI			LPSI			RPSI			LTHI			LKNE			LTIB			LANK			LHEE			LTOE			RTHI			RKNE			RTIB			RANK			RHEE			RTOE			*39			*40			*41			*42		
		X1	Y1	Z1	X2	Y2	Z2	X3	Y3	Z3	X4	Y4	Z4	X5	Y5	Z5	X6	Y6	Z6	X7	Y7	Z7	X8	Y8	Z8	X9	Y9	Z9	X10	Y10	Z10	X11	Y11	Z11	X12	Y12	Z12	X13	Y13	Z13	X14	Y14	Z14	X15	Y15	Z15	X16	Y16	Z16	X17	Y17	Z17	X18	Y18	Z18	X19	Y19	Z19	X20	Y20	Z20	X21	Y21	Z21	X22	Y22	Z22	X23	Y23	Z23	X24	Y24	Z24	X25	Y25	Z25	X26	Y26	Z26	X27	Y27	Z27	X28	Y28	Z28	X29	Y29	Z29	X30	Y30	Z30	X31	Y31	Z31	X32	Y32	Z32	X33	Y33	Z33	X34	Y34	Z34	X35	Y35	Z35	X36	Y36	Z36	X37	Y37	Z37	X38	Y38	Z38	X39	Y39	Z39	X40	Y40	Z40	X41	Y41	Z41	X42	Y42	Z42	X43	Y43	Z43
																																																																																																																																		
166	1.65	548.30621	1660.31836	1333.89551	587.79224	1665.58044	1441.14832	434.23291	1621.88916	1370.04187	473.03781	1626.73718	1483.75586	397.47748	1427.02722	1403.57471	355.80472	1134.75439	1415.37708	541.21167	1357.64844	1398.44214	580.51984	1201.79028	1392.4856	342.97934	1234.84375	1483.13806	478.29034	1388.71228	1241.21069	480.39191	1209.52344	1146.93372	507.4964	1060.10547	1131.12378	593.70764	985.41974	1100.11804	719.62268	927.10602	1111.48633	675.1734	895.24615	1087.39575	752.35895	865.16315	1070.64514	484.90906	1388.81323	1552.61426	405.18701	1195.66223	1650.74719	391.17273	1073.29602	1652.59375	393.90085	954.51599	1685.82141	447.63153	822.27759	1672.09021	404.77875	834.35522	1710.20166	422.12717	748.89484	1708.19629	519.40833	926.65051	1298.67786	536.0611	932.8067	1515.45654	337.77478	937.20844	1370.36084	351.86673	936.44745	1514.29004	443.39017	596.4325	1256.55164	411.55475	463.24097	1274.86292	323.06754	294.33041	1272.44946	252.46609	87.35447	1331.09839	204.51166	66.59809	1384.70935	391.76099	33.96815	1320.05457	565.98193	606.59692	1588.81921	631.67377	465.62985	1560.11377	629.8266	292.8157	1577.15552	676.29102	86.18329	1538.30054	643.42041	33.87744	1487.07263	819.8974	84.91999	1542.32214	572.12769	1699.57166	1420.76721	1973.08679	1023.34058	-3101.98389	2012.53528	1022.07379	-3140.61133	NaN	NaN	NaN
167	1.66	558.08453	1659.52051	1335.31592	597.74146	1664.56348	1442.56482	444.06018	1621.21411	1371.64087	482.9791	1625.90527	1485.33044	406.87045	1426.1394	1404.87646	365.75366	1133.63513	1416.54675	550.81635	1356.80078	1399.64087	590.22589	1201.06018	1393.27246	352.79642	1233.69739	1484.39966	487.58612	1388.15283	1242.54932	490.34503	1209.38208	1147.86633	518.01379	1060.11194	1131.62219	604.75421	986.08167	1100.26746	731.12506	928.69867	1111.40894	686.92706	896.57648	1087.24182	764.38312	867.06403	1070.41797	494.6723	1387.78149	1553.94678	414.2854	1194.71094	1651.69849	399.73901	1072.40625	1653.28735	401.90793	953.55127	1686.39624	455.43509	821.21143	1672.59045	412.69263	833.50836	1710.83704	429.56833	747.7511	1708.45837	529.45831	926.2384	1298.67993	546.65686	931.66589	1515.8623	348.01263	936.45453	1371.22278	362.31418	935.755	1515.23914	450.47684	596.53174	1256.33813	417.28436	463.56323	1274.52429	326.64713	295.64111	1272.04114	253.59903	89.65148	1330.62061	205.02458	69.51379	1384.06323	391.83792	33.98956	1319.9574	573.71179	604.93256	1590.49414	640.50305	464.79947	1560.31421	644.22485	291.76233	1576.66675	697.28143	86.83048	1537.56665	666.26147	33.66262	1486.35962	841.74359	90.00115	1540.71497	582.23535	1698.73511	1422.33813	1973.09143	1023.33545	-3101.84155	2012.51306	1021.90637	-3140.62378	NaN	NaN	NaN
168	1.67	567.82941	1658.65002	1336.87402	607.68109	1663.54468	1444.0614	453.76303	1620.56873	1373.38879	492.94989	1625.11511	1487.03357	416.48663	1425.15088	1406.55078	375.70782	1132.59717	1417.81885	560.40295	1356.01208	1400.95337	600.08234	1200.41162	1394.31677	362.63104	1232.46912	1485.70972	496.99179	1387.61267	1243.93701	500.26172	1209.23096	1148.92102	528.32733	1059.93469	1132.06299	615.44	986.55518	1100.58667	742.22009	929.95929	1111.45093	698.24127	897.62769	1087.20044	775.83502	868.5611	1070.39038	504.35333	1386.79956	1555.50513	423.52792	1193.66821	1652.78687	408.54236	1071.41858	1654.09131	410.35632	952.50195	1687.04651	463.61798	820.06702	1673.18079	420.6759	832.31995	1711.354	437.51721	746.61414	1708.87463	539.57666	925.72961	1299.28259	557.31104	930.43469	1516.30078	358.43417	935.74646	1372.10059	373.2652	934.39307	1515.90466	457.85645	596.72888	1256.1499	423.33154	463.89261	1274.14734	330.54074	297.07062	1271.59241	254.66077	91.75793	1329.95251	205.93591	72.56129	1383.31372	391.94006	33.9146	1319.74866	581.54279	602.89838	1590.80249	649.49359	463.93677	1560.48413	658.25305	291.31671	1576.74182	716.30542	87.58928	1536.99561	685.95831	33.61741	1486.01172	860.95148	94.09187	1538.39624	592.20209	1697.76538	1423.87451	1973.17236	1023.41827	-3101.83374	2012.63879	1022.14081	-3140.71753	NaN	NaN	NaN
169	1.68	577.50043	1657.77063	1338.5116	617.64526	1662.53992	1445.62305	463.43268	1619.88855	1375.26953	502.86905	1624.27722	1488.78088	425.90784	1424.14709	1408.01843	385.78543	1131.47607	1419.10803	570.00293	1355.27051	1402.39539	609.99176	1199.72266	1395.38196	372.52249	1231.20325	1486.96582	506.46805	1387.11511	1245.49756	509.96844	1208.9552	1150.09851	538.39557	1059.78735	1132.88037	625.80676	986.86115	1101.1062	752.89587	930.83386	1111.64612	709.02319	898.3833	1087.31372	786.76355	869.65918	1070.41663	513.96582	1385.68201	1557.05432	432.96692	1192.54089	1654.04297	417.64435	1070.349	1655.09204	419.17294	951.3689	1687.854	472.13699	818.83105	1673.87585	429.04114	831.05377	1711.79248	445.81836	745.33484	1709.30908	550.01898	925.23907	1299.57153	568.06238	929.30505	1516.88574	368.97327	934.93445	1372.94763	383.40771	933.6745	1517.00952	465.48846	596.86786	1256.11499	429.72131	464.21628	1273.85718	334.75357	298.62585	1271.1106	255.89828	93.89642	1329.04199	206.7437	75.77769	1382.38391	392.01752	34.01283	1319.3855	590.71881	601.53479	1591.16138	659.01776	462.91177	1560.48657	670.88702	290.56766	1576.07813	732.93115	88.0438	1536.41663	703.23993	33.31053	1485.69421	877.40582	96.57534	1535.74597	602.20734	1696.82507	1425.48035	1973.04114	1023.73676	-3101.94043	2012.50366	1021.93829	-3140.59839	NaN	NaN	NaN
170	1.69	587.0719	1656.93262	1340.28943	627.51953	1661.60291	1447.35645	473.12741	1619.22791	1377.25757	512.76984	1623.45203	1490.71643	435.41495	1423.16345	1409.72974	396.07037	1130.27881	1420.37585	579.65594	1354.50903	1403.94238	619.9646	1199.12573	1396.64355	382.46283	1229.85144	1488.3114	515.98871	1386.60522	1247.14673	519.61938	1208.6499	1151.50122	548.21198	1059.46436	1133.82483	635.95251	987.01642	1101.72375	763.16681	931.36029	1111.96521	719.44421	898.84393	1087.6355	797.21863	870.36029	1070.55701	523.53601	1384.56458	1558.67432	442.5192	1191.2771	1655.40479	427.01682	1069.12292	1656.15222	428.27225	950.14606	1688.75171	481.01312	817.47333	1674.62866	437.93192	829.78223	1712.58008	454.41782	743.90186	1709.82031	560.74084	924.78003	1300.25513	578.91913	928.23297	1517.57117	379.56509	934.30292	1373.87122	394.22302	932.62592	1517.83643	473.64484	596.96503	1256.06592	436.65576	464.52094	1273.60632	339.2265	300.17105	1270.56934	257.0213	96.47988	1328.01196	207.64771	79.32101	1381.31335	391.88382	34.20121	1319.51636	601.29059	600.87952	1591.28943	669.11432	461.86368	1560.41919	683.0824	289.63757	1575.31396	746.87335	87.77026	1535.52734	717.98816	33.20933	1485.63904	891.69763	97.76736	1533.35571	612.10876	1695.87244	1427.2196	1973.19214	1023.25989	-3102.00415	2012.5498	1021.97455	-3140.59595	NaN	NaN	NaN
171	1.7	596.59265	1656.15698	1342.15063	637.30414	1660.68176	1449.16174	482.68628	1618.46802	1379.39294	522.63361	1622.59985	1492.72156	444.96103	1422.16626	1411.63721	406.4183	1129.07288	1421.65308	589.33685	1353.84277	1405.68848	630.00897	1198.57019	1398.0907	392.42426	1228.47937	1489.66541	525.58484	1386.09412	1248.89221	529.10779	1208.25232	1152.97217	557.94464	1059.33411	1134.90027	645.73407	986.91595	1102.44934	773.10944	931.49774	1112.44849	729.41473	898.99207	1088.14319	807.14362	870.65057	1070.828	533.02014	1383.44983	1560.43481	452.21078	1189.95886	1656.8551	436.63577	1067.8667	1657.42603	437.69971	948.82281	1689.79749	490.32251	816.14404	1675.54199	447.39328	828.53204	1713.66162	463.44385	742.4093	1710.4093	571.28931	924.00262	1301.23254	589.87854	927.34503	1518.40942	390.49432	933.38	1374.7395	405.00824	931.53754	1518.65405	482.2085	596.98547	1256.21069	444.09094	464.72665	1273.41565	344.17609	301.74341	1269.97424	258.60748	99.24357	1327.04736	208.73891	82.8193	1380.22095	392.04926	34.2419	1319.32141	612.3468	599.71515	1590.11108	679.88037	460.89343	1560.06519	694.44177	288.45718	1574.45789	758.42444	86.43651	1534.29565	728.9137	31.54174	1484.3064	903.33282	97.11441	1531.18945	621.87738	1694.96265	1429.06091	1973.20435	1023.41199	-3101.88672	2012.53149	1022.08051	-3140.6106	NaN	NaN	NaN
